<?xml version="1.0" encoding="UTF-8"?>
<svg width="56px" height="43px" viewBox="0 0 700 548" version="1.1" xmlns="http://www.w3.org/2000/svg" xmlns:xlink="http://www.w3.org/1999/xlink">
    <title>cnbc-black</title>
    <g id="cnbc-black" stroke="none" stroke-width="1" fill="none" fill-rule="evenodd">
        <g id="cnbc-black-copy" fill="#000000" fill-rule="nonzero">
            <path d="M92.497,109.818 C64.494,135.168 54.302,192.608 104.783,226.186 L306.174,364.355 L208.526,140.642 C188.064,87.851 132.086,76.339 92.497,109.818" id="path3115"></path>
            <path d="M265.857,1.049 C233.121,1.716 183.964,40.699 205.84,100.227 L306.835,338.413 L342.324,87.887 C350.536,25.637 303.427,-3.099 265.857,1.049" id="path3117"></path>
            <path d="M358.084,78.332 L377.181,78.332 C377.181,78.332 387.379,78.332 388.767,83.143 C381.252,89.28 360.797,90.049 363.513,122.83 L395.616,338.379 L495.921,99.568 C516.438,46.246 473.373,1.714 435.172,0.353 C433.388,0.225 431.597,0.121 429.743,0.121 C395.456,0.121 356.164,25.039 358.084,78.332" id="path3119"></path>
            <path d="M491.883,142.671 L397.011,363.7 L598.343,224.802 C644.753,191.884 637.268,139.256 611.289,113.242 C600.398,100.998 580.401,91.5399986 559.218,91.5399986 C534.192,91.535 507.409,104.809 491.883,142.671" id="path3121"></path>
            <path d="M575.801,256.251 L386.726,388.318 L619.532,388.318 C667.295,388.318 697.989,339.072 684.344,293.88 C675.205,265.474 648.167,243.176 616.784,243.144 C603.574,243.149 589.565,247.128 575.801,256.251" id="path3123"></path>
            <path d="M87.072,388.318 L316.443,388.318 L127.32,256.251 C83.628,228.179 34.5,244.605 16.764,291.19 C1.73,344.517 39.267,388.318 87.072,388.318" id="path3125"></path>
            <path d="M0.931,483.898 C0.931,506.39 19.318,547.331 89.526,547.331 C154.256,547.331 174.7,517.629 174.7,504.01 L124.587,504.01 C124.587,504.01 122.207,522.003 93.938,522.003 C65.651,522.003 58.001,498.392 58.001,484.739 C58.001,471.138 65.651,448.802 93.938,448.802 C122.207,448.802 124.587,464.467 124.587,464.467 L174.7,464.467 C174.7,450.832 159.7,421.549 89.526,421.549 C19.318,421.549 0.931,465.151 0.931,483.898" id="Path"></path>
            <path d="M526.487,483.898 C526.487,506.39 544.893,547.331 615.082,547.331 C679.806,547.331 700.258,517.629 700.258,504.01 L650.18,504.01 C650.18,504.01 647.789,522.003 619.513,522.003 C591.223,522.003 583.565,498.392 583.565,484.739 C583.565,471.138 591.223,448.802 619.513,448.802 C647.789,448.802 650.18,464.467 650.18,464.467 L700.258,464.467 C700.258,450.832 685.274,421.549 615.082,421.549 C544.894,421.549 526.487,465.151 526.487,483.898" id="Path"></path>
            <polyline id="Path" points="311.659 423.649 311.659 499.79 253.338 423.649 187.732 423.649 187.732 544.25 232.709 544.25 232.709 467.234 290.009 544.25 356.639 544.25 356.639 423.649 311.659 423.649"></polyline>
            <path d="M455.786,515.438 L455.786,515.597 L418.31,515.597 L418.31,493.453 L455.786,493.453 L455.786,493.525 C463.788,493.525 470.255,498.443 470.255,504.499 C470.255,510.54 463.788,515.438 455.786,515.438 M418.654,447.105 L454.764,447.105 L454.764,447.156 C460.882,447.156 465.843,451.181 465.843,456.135 C465.843,461.108 460.882,465.098 454.764,465.098 L454.764,465.152 L418.654,465.152 L418.654,447.105 Z M492.593,480.134 C500.781,480.134 517.901,470.629 517.901,452.215 C517.901,425.994 469.074,423.649 461.584,423.649 L371.622,423.649 L371.622,544.25 L461.584,544.25 C504.852,544.25 522.233,530.581 522.233,507.755 C522.233,484.929 492.593,480.134 492.593,480.134 Z" id="Shape"></path>
        </g>
    </g>
</svg>