<?xml version="1.0" encoding="UTF-8"?>
<svg width="56px" height="27px" viewBox="0 0 54 26" version="1.1" xmlns="http://www.w3.org/2000/svg" xmlns:xlink="http://www.w3.org/1999/xlink">
    <!-- Generator: Sketch 61.2 (89653) - https://sketch.com -->
    <title>logos/media/cnn-black</title>
    <desc>Created with Sketch.</desc>
    <defs>
        <polygon id="path-1" points="0 6.34083923e-05 54 6.34083923e-05 54 25.9153054 0 25.9153054"></polygon>
    </defs>
    <g id="logos/media/cnn-black" stroke="none" stroke-width="1" fill="none" fill-rule="evenodd">
        <g id="Group-3">
            <mask id="mask-2" fill="white">
                <use xlink:href="#path-1"></use>
            </mask>
            <g id="Clip-2"></g>
            <path d="M13.2124731,0.0946586826 C-4.52992114,0.0946586826 -4.35727543,25.6064192 13.452696,25.6201198 L20.4205474,25.6201198 C23.4153874,25.6201198 25.327296,23.8307904 25.3239017,20.5286347 L25.3239017,14.0608623 C25.3239017,14.0608623 29.235816,20.5867066 30.7721931,23.1440479 C33.3779246,27.4913413 39.6789531,26.6339641 39.6619817,21.2046347 L39.6619817,14.0608623 C39.6619817,14.0608623 43.5603189,20.5867066 45.0933017,23.1440479 C47.6990331,27.4913413 54.0168789,26.6339641 54.0000952,21.2046347 L54.0000952,0.0909221557 L50.8122103,0.0909221557 L50.8122103,20.750491 C50.8156046,21.5427904 50.4028903,22.1300479 49.8343474,22.3178084 C49.2658046,22.5055689 48.6127131,22.270012 48.216816,21.7031497 L48.1998446,21.7031497 L48.1998446,21.672479 C48.1998446,21.672479 39.8006846,8.11900599 37.6585817,4.58487425 C37.6517931,4.57817964 37.6485531,4.59156886 37.6417646,4.58487425 C37.6383703,4.58487425 37.6451589,4.56790419 37.6417646,4.56790419 C37.4217531,4.27069461 37.1375589,4.20608383 36.9039703,4.2777006 C36.6637474,4.35274251 36.4369474,4.56120958 36.4403417,5.08712575 L36.4403417,20.7338323 C36.443736,21.5223952 36.0410503,22.1440599 35.479296,22.3354012 C34.9175417,22.5265868 34.2712389,22.2740599 33.878736,21.7037725 L33.878736,21.6868024 L33.8617646,21.6868024 C33.8617646,21.6868024 25.4559703,8.10639521 23.320656,4.58222754 C23.0972503,4.26104192 22.8096617,4.18273054 22.5692846,4.25777246 C22.3290617,4.33281437 22.1022617,4.54128144 22.105656,5.06704192 L22.105656,5.08416766 L22.105656,20.618 C22.105656,21.5603832 21.3376217,22.3494132 20.4069703,22.3494132 L12.9722503,22.3494132 C9.71003314,22.3494132 7.23637029,21.1646228 5.60186743,19.3751377 C3.96736457,17.5858084 3.16199314,15.2123353 3.16538743,12.8427545 C3.16878171,10.4764431 3.97415314,8.086 5.56792457,6.29667066 C7.16185029,4.50718563 9.55435886,3.32566467 12.6473246,3.32239521 L17.1651189,3.32239521 L17.1651189,0.0885868263 L13.2090789,0.0885868263 L13.2124731,0.0946586826 Z M22.230936,0.0126107784 C19.9941017,0.17297006 18.0990103,2.07190419 18.0990103,4.74897006 L18.0990103,17.486012 C18.0990103,17.9468503 17.7606617,18.3430778 17.2666389,18.3430778 L13.324176,18.3430778 C4.78970743,18.3533533 5.54771314,7.34741317 12.8131817,7.33371257 L17.1719074,7.33371257 L17.1719074,4.134 L12.6541131,4.134 C9.76079314,4.134 7.615296,5.22350898 6.167016,6.8488982 C4.71858171,8.47428743 3.99112457,10.6631138 3.9877183,12.8450898 C3.984336,15.0270659 4.70176457,17.2021916 6.18383314,18.8275808 C7.666056,20.4497006 9.90628457,21.542479 12.9756446,21.542479 L20.4103646,21.542479 C20.9009931,21.542479 21.3070731,21.1155808 21.3070731,20.6203353 L21.3070731,5.08650299 C21.3036789,4.28750898 21.750336,3.66584431 22.332456,3.48477844 C22.9144217,3.30371257 23.5980617,3.53241916 23.9973531,4.11640719 L24.0143246,4.13337725 C26.1292731,7.62313772 34.5250389,21.213976 34.538616,21.2379521 C34.768656,21.5691018 35.0428217,21.6271737 35.2424674,21.5624072 C35.4421131,21.4940599 35.6451531,21.2756287 35.6417589,20.7361677 L35.6417589,5.08603593 C35.6383646,4.28704192 36.0850217,3.66553293 36.6671417,3.48446707 C37.2491074,3.3034012 37.915776,3.53210778 38.3184617,4.11609581 L38.3184617,4.13306587 L38.3490103,4.13306587 C40.4639589,7.62282635 48.8597246,21.2136647 48.8733017,21.2376407 C49.0999474,21.565521 49.3673246,21.6304431 49.5771531,21.5620958 C49.7869817,21.4937485 49.9968103,21.289018 49.9934566,20.7528263 L49.9934566,0.093257485 L46.8055646,0.093257485 L46.8055646,12.1507186 C46.8055646,12.1507186 44.9038389,8.87269461 41.6484103,3.2280479 C38.4573189,-2.30076647 32.4370903,-0.0127664671 32.4370903,4.74756886 L32.4370903,12.1507186 C32.4370903,12.1507186 30.5691531,8.87269461 27.3103303,3.2280479 C25.9160503,0.810359281 23.9703531,-0.115053892 22.230936,0.0113652695 L22.230936,0.0126107784 Z" id="Fill-1" fill="#000000" mask="url(#mask-2)"></path>
        </g>
    </g>
</svg>