<?xml version="1.0" encoding="UTF-8"?>
<svg width="128px" height="27px" viewBox="0 0 750 147" version="1.1" xmlns="http://www.w3.org/2000/svg" xmlns:xlink="http://www.w3.org/1999/xlink">
    <title>entrepreneur-black</title>
    <defs>
        <polygon id="path-1" points="0.8935 0.8337 13.674 0.8337 13.674 11.7067 0.8935 11.7067"></polygon>
    </defs>
    <g id="entrepreneur-black" stroke="none" stroke-width="1" fill="none" fill-rule="evenodd">
        <g id="Group-28-Copy">
            <path d="M66.5,0.0002 C65.995,8.7112 65.49,17.4232 64.967,26.4222 C60.529,26.2642 56.33,26.1152 51.912,25.9602 C51.608,20.4672 51.315,15.1682 51.011,9.6722 L30.692,9.6722 L30.692,48.6182 L39.494,48.6182 C40.174,45.7872 40.849,42.9762 41.554,40.0412 L50.625,40.0412 L50.625,66.8312 L41.716,66.8312 C40.989,63.9532 40.245,61.0102 39.478,57.9752 L30.731,57.9752 L30.731,99.3132 L51.157,99.3132 C51.806,93.4382 52.453,87.5932 53.133,81.4362 C57.714,81.5882 62.172,81.7342 66.878,81.8912 C67.237,91.0802 67.588,100.0982 67.946,109.2812 L1.102,109.2812 L1.102,99.6862 C4.329,99.1312 7.339,98.6132 10.488,98.0702 L10.488,10.6482 C6.911,10.2562 3.456,9.8792 0,9.5002 L0,0.0002 L66.5,0.0002 Z" id="Fill-1" fill="#000000"></path>
            <path d="M328.9043,97.5998 C334.8423,100.1158 340.5453,100.2458 346.3673,98.2038 C347.5283,97.7968 348.2013,97.1108 348.4723,95.9978 C349.1773,93.1018 350.0563,90.2228 350.4773,87.2818 C351.7573,78.3478 351.5933,69.3578 350.9273,60.3908 C350.7013,57.3498 350.1323,54.2678 349.2243,51.3578 C347.2423,45.0088 342.9343,42.5628 336.3543,43.6508 C336.0273,43.7048 335.7073,43.8048 335.3813,43.8678 C331.4283,44.6288 328.9153,47.6348 328.9123,51.6778 C328.9013,66.2388 328.9053,80.7968 328.9043,95.3558 L328.9043,97.5998 Z M303.0363,146.3418 C303.2143,143.6738 303.3743,141.2888 303.5383,138.8318 C305.9753,138.2928 308.2303,137.7948 310.6273,137.2658 L310.6273,44.0208 C307.9073,43.6098 305.1503,43.1918 302.2183,42.7478 L302.2183,34.9628 C309.4803,33.9538 316.8413,32.9318 324.4623,31.8718 C325.2643,34.7408 326.0093,37.4058 326.7913,40.2028 C327.0983,39.9298 327.4283,39.6978 327.6853,39.4008 C333.1113,33.1598 340.1103,31.0098 348.1023,31.7778 C358.1303,32.7428 363.6503,39.0708 366.4183,48.1058 C367.6523,52.1328 368.4813,56.3728 368.8003,60.5708 C369.4583,69.2088 369.6053,77.8978 367.9323,86.4628 C367.3143,89.6248 366.4463,92.8058 365.1833,95.7598 C361.3243,104.7798 354.2593,109.5358 344.5513,110.3848 C339.5943,110.8188 334.7383,110.3398 330.1243,108.2888 C329.8353,108.1608 329.5073,108.1208 329.0383,107.9988 L329.0383,137.2738 C331.4313,137.7678 333.8383,138.2638 336.5973,138.8338 C336.4323,141.3008 336.2683,143.7468 336.0933,146.3418 L303.0363,146.3418 Z" id="Fill-3" fill="#000000"></path>
            <path d="M550.4438,99.7893 C553.2658,100.3533 555.6938,100.8403 558.2728,101.3563 C558.1278,104.0593 557.9908,106.5973 557.8448,109.2823 L532.3908,109.2823 C532.3638,108.7093 532.3128,108.1543 532.3128,107.6003 C532.3128,90.6853 532.3638,73.7693 532.2678,56.8553 C532.2548,54.5803 531.7328,52.2343 531.0328,50.0553 C530.1838,47.4083 528.0748,45.9753 525.3388,45.3733 C522.7118,44.7973 520.1298,45.0103 517.7368,46.0193 C515.6238,46.9103 513.9338,48.5803 513.9258,51.0843 C513.8798,67.0823 513.9118,83.0803 513.9228,99.0783 C513.9228,99.2383 514.0008,99.3983 514.1078,99.8123 C516.3978,100.2793 518.8048,100.7713 521.5918,101.3403 C521.4318,103.9573 521.2738,106.5643 521.1068,109.2953 L488.2968,109.2953 L488.2968,101.3813 C490.8158,100.8403 493.1428,100.3403 495.6138,99.8093 L495.6138,44.7883 C492.9248,44.4803 490.1598,44.1643 487.2468,43.8303 L487.2468,35.7243 C494.3808,34.7033 501.4408,33.6933 508.8808,32.6313 C509.5448,35.0433 510.1868,37.3833 510.8158,39.6723 C512.4548,38.4353 514.1478,36.9663 516.0198,35.7773 C523.1678,31.2343 530.8658,30.4563 538.7388,33.3123 C545.3578,35.7153 548.8228,40.9503 549.9728,47.7553 C550.2908,49.6333 550.4148,51.5643 550.4208,53.4733 C550.4578,67.9713 550.4418,82.4693 550.4438,96.9693 L550.4438,99.7893 Z" id="Fill-5" fill="#000000"></path>
            <path d="M100.0776,99.8108 C102.7276,100.3498 105.0746,100.8268 107.6196,101.3438 C107.4596,104.0318 107.3066,106.5818 107.1466,109.2808 L73.9986,109.2808 C74.1386,106.6718 74.2726,104.1438 74.4206,101.3728 C76.8116,100.8528 79.1366,100.3458 81.4486,99.8418 C81.9736,98.0548 82.1066,47.5838 81.5536,44.7738 C78.8656,44.4728 76.0936,44.1608 73.2076,43.8378 L73.2076,35.7468 C80.2956,34.7308 87.4206,33.7098 94.8916,32.6388 C95.5466,35.0378 96.1686,37.3188 96.8576,39.8438 C97.4646,39.3068 98.1506,38.6738 98.8626,38.0728 C105.7936,32.2188 113.7536,30.4628 122.4666,32.5858 C130.0266,34.4298 134.3606,39.5728 135.8856,47.0938 C136.2796,49.0368 136.4156,51.0598 136.4216,53.0468 C136.4646,67.6238 136.4436,82.2018 136.4436,96.7798 L136.4436,99.7858 C139.1226,100.3108 141.5476,100.7878 144.2406,101.3168 C144.1766,102.6508 144.0896,103.9398 144.0586,105.2318 C144.0286,106.5428 144.0526,107.8578 144.0526,109.2948 L118.4406,109.2948 L118.4406,106.4048 C118.4396,90.4108 118.4536,74.4158 118.4176,58.4218 C118.4136,56.5158 118.2546,54.5898 117.9626,52.7058 C117.2756,48.2778 114.6586,45.6528 110.1906,45.2288 C106.9526,44.9198 103.6796,44.9948 101.3066,47.9148 C100.3716,49.0648 99.9186,50.2368 99.9256,51.7638 C99.9826,63.9258 99.9566,76.0878 99.9566,88.2498 C99.9566,91.2478 99.9476,94.2468 99.9606,97.2468 C99.9636,98.0628 100.0326,98.8778 100.0776,99.8108" id="Fill-7" fill="#000000"></path>
            <path d="M667.5317,42.7541 C664.7607,42.4791 662.0417,42.2091 659.1217,41.9201 L659.1217,34.7791 C667.3247,33.8441 675.5567,32.9041 683.8737,31.9571 C684.8817,35.0511 685.9637,37.8571 685.9517,41.0371 C685.8777,59.6151 685.9147,78.1951 685.9147,96.7741 L685.9147,99.7801 C688.5747,100.3261 690.9867,100.8201 693.6047,101.3581 C693.3297,104.0431 693.0697,106.5781 692.7937,109.2681 L671.4867,109.2681 C670.8757,107.3971 670.2197,105.3841 669.4807,103.1231 C668.7837,103.6681 668.2637,104.0221 667.8047,104.4421 C659.1077,112.3891 647.4297,111.5781 640.0067,107.9821 C634.2527,105.1931 631.1407,100.3321 630.0567,94.1491 C629.6997,92.1111 629.5497,90.0131 629.5437,87.9421 C629.5007,73.9451 629.5217,59.9481 629.5217,45.9511 L629.5217,42.8131 C626.6037,42.4961 623.9087,42.2051 621.0847,41.9001 L621.0847,34.7931 C629.1777,33.8541 637.3137,32.9101 645.7207,31.9361 C646.4047,34.7421 647.6057,37.2701 647.5977,40.1741 C647.5587,54.8381 647.5627,69.5001 647.5947,84.1641 C647.5977,86.1541 647.7257,88.1581 647.9867,90.1311 C648.6997,95.5121 652.1567,98.7031 657.5457,98.7951 C659.4277,98.8261 661.3557,98.4531 663.1997,98.0041 C665.2217,97.5121 667.7777,94.0451 667.7797,92.0121 C667.7897,75.8501 667.7787,59.6871 667.7677,43.5241 C667.7677,43.3701 667.6767,43.2171 667.5317,42.7541" id="Fill-9" fill="#000000"></path>
            <path d="M284.5552,66.0295 C284.3532,63.7155 284.2422,61.8125 284.0112,59.9265 C283.4632,55.4555 282.6192,51.0505 280.3602,47.0685 C277.8822,42.6995 274.1212,41.3365 269.3592,42.8715 C267.4852,43.4765 266.2462,44.5275 265.4962,46.3775 C263.0022,52.5335 261.7702,58.9415 261.4642,65.5495 C261.4432,66.0045 261.6232,66.4665 261.7412,67.0935 C269.3072,66.7405 276.7502,66.3925 284.5552,66.0295 M261.8332,75.8705 C261.8262,82.0955 262.7902,87.6105 266.1122,92.4665 C269.0772,96.8025 273.1732,99.0745 278.5292,99.1645 C283.5362,99.2465 288.2762,98.2565 292.8552,96.3175 C293.4592,96.0625 294.0762,95.8365 294.9122,95.5085 C295.9212,97.8165 296.9082,100.0745 298.0212,102.6235 C296.6692,103.5405 295.3852,104.5805 293.9562,105.3515 C284.7282,110.3365 275.0202,112.0565 264.8052,109.0765 C256.2472,106.5805 250.6382,100.6555 246.9482,92.7815 C242.8812,84.1015 241.9632,74.8985 242.7532,65.4595 C243.2352,59.6975 244.4802,54.1095 246.9302,48.8425 C250.9112,40.2805 257.1382,34.3105 266.5972,32.3205 C275.6302,30.4205 284.0352,31.5685 290.9732,38.2585 C295.0962,42.2335 297.3722,47.3045 298.9552,52.7285 C300.5782,58.2895 301.1432,64.0085 301.162224,69.7485 C301.1682,71.6235 300.0652,73.5005 299.4592,75.4065 C286.8352,75.5625 274.4652,75.7155 261.8332,75.8705" id="Fill-11" fill="#000000"></path>
            <path d="M602.8989,66.0373 C602.6689,60.7893 602.0829,55.9683 600.6019,51.2733 C599.8449,48.8753 598.6609,46.7423 597.1099,44.7363 C594.1539,40.9123 584.9819,41.6853 583.5749,46.9283 C582.4359,51.1683 580.9989,55.3183 580.4139,59.6953 C580.0979,62.0583 579.6609,64.4133 580.1199,67.0923 C587.6689,66.7423 595.1009,66.3973 602.8989,66.0373 M617.9069,75.4103 C605.1219,75.5643 592.8069,75.7143 580.3009,75.8653 C580.0059,78.5763 580.4439,81.0903 580.9259,83.5813 C581.6629,87.3873 583.0669,90.9023 585.6039,93.9133 C588.4579,97.2973 592.0729,99.0043 596.4849,99.1543 C601.3029,99.3203 605.9279,98.4983 610.3809,96.6643 C611.2939,96.2893 612.2209,95.9513 613.3429,95.5193 C614.3519,97.8653 615.3269,100.1333 616.4479,102.7393 C616.0379,103.0103 615.6209,103.2723 615.2159,103.5553 C607.2149,109.1313 598.2499,111.3143 588.6799,110.2623 C576.8759,108.9633 568.9949,102.0233 564.7179,91.2773 C559.1839,77.3723 559.4239,63.2443 565.1159,49.4203 C568.7709,40.5433 575.2249,34.4063 584.8829,32.3363 C592.4569,30.7133 599.7859,31.1993 606.4139,35.7733 C611.1189,39.0213 613.9959,43.6373 616.0259,48.8363 C618.6369,55.5193 619.6339,62.5143 619.4709,69.6393 C619.4269,71.5453 618.4689,73.4303 617.9069,75.4103" id="Fill-13" fill="#000000"></path>
            <path d="M469.1685,66.0197 C468.9415,63.5107 468.8185,61.2927 468.5275,59.0977 C467.9795,54.9667 467.1605,50.8937 465.0665,47.2127 C462.3525,42.4417 458.2805,41.0707 453.2035,43.1367 C451.9215,43.6587 451.0175,44.4517 450.4205,45.7677 C448.1955,50.6677 447.1025,55.8427 446.4675,61.1387 C446.2435,62.9997 446.1355,64.8757 445.9415,67.1057 C453.8545,66.7367 461.3525,66.3847 469.1685,66.0197 M484.0755,75.4067 C471.3815,75.5637 459.0105,75.7167 446.4325,75.8717 C446.5045,82.6447 447.5735,88.7617 451.8465,93.9047 C454.5915,97.2087 458.1355,98.9627 462.4755,99.1367 C467.3795,99.3337 472.0885,98.5277 476.6255,96.6707 C477.5385,96.2967 478.4575,95.9377 479.5595,95.4987 C480.5645,97.8267 481.5415,100.0837 482.6175,102.5767 C481.7435,103.2207 480.9345,103.9017 480.0465,104.4577 C471.4065,109.8637 461.9855,111.7307 452.0435,109.8007 C442.7565,107.9997 436.2735,102.1977 432.0935,93.8657 C427.8385,85.3887 426.6375,76.3027 427.2785,66.9197 C427.7075,60.6487 428.9045,54.5497 431.5725,48.8147 C434.6995,42.0957 439.2575,36.6717 446.2965,33.9027 C454.5445,30.6557 462.8595,30.3357 470.8815,34.6757 C476.1545,37.5297 479.4655,42.1957 481.7755,47.6017 C484.7725,54.6097 485.7735,62.0297 485.770507,69.5627 C485.770507,71.5217 484.6645,73.4807 484.0755,75.4067" id="Fill-15" fill="#000000"></path>
            <path d="M212.2656,32.6447 C212.8436,34.9547 213.3786,37.0957 213.9596,39.4187 C214.8416,38.8847 215.7286,38.3287 216.6336,37.8007 C221.9076,34.7247 227.6446,33.2517 233.6836,32.5917 C236.6036,32.2737 238.6696,33.2167 240.3546,35.6627 C239.6106,42.3047 238.8546,49.0637 238.0726,56.0527 C233.8856,55.8807 229.9236,55.7187 225.8186,55.5487 C225.3586,51.8167 224.9256,48.2987 224.4736,44.6327 C221.4966,44.8747 219.0056,45.7817 216.6616,47.3577 L216.6616,99.8617 C219.1246,100.4197 221.6016,100.9847 224.2526,101.5857 C224.1086,104.1447 223.9706,106.5997 223.8226,109.2447 L191.0786,109.2447 L191.0786,101.6347 C193.4236,101.0377 195.6456,100.4687 197.9226,99.8877 L197.9226,44.7657 C195.2676,44.4577 192.7336,44.1637 190.0466,43.8517 L190.0466,35.7267 C197.4466,34.7007 204.7456,33.6877 212.2656,32.6447" id="Fill-17" fill="#000000"></path>
            <path d="M698.2212,109.3244 C698.3432,106.6364 698.4552,104.1644 698.5752,101.5824 C700.8562,101.0194 703.0232,100.4844 705.3662,99.9054 L705.3662,44.7994 C702.8342,44.4924 700.2392,44.1784 697.3462,43.8264 L697.3462,39.8324 L697.3462,35.7364 C704.9102,34.6934 712.2092,33.6874 719.6602,32.6604 C720.2562,34.9904 720.8012,37.1254 721.3052,39.0954 C724.4522,37.6464 727.5042,35.9164 730.7712,34.8304 C733.9772,33.7634 737.3972,33.3244 740.7332,32.6584 C743.6192,32.0814 745.9722,32.9334 747.7392,35.7034 C747.0122,42.2074 746.2572,48.9674 745.4682,56.0284 C741.3712,55.8754 737.4102,55.7264 733.2422,55.5714 C732.7722,51.8314 732.3192,48.2384 731.8152,44.2484 C729.1022,45.1934 726.6272,46.0564 724.1082,46.9354 L724.1082,99.8814 C726.5202,100.4284 728.9972,100.9904 731.6832,101.5994 C731.5202,104.1724 731.3592,106.7014 731.1922,109.3244 L698.2212,109.3244 Z" id="Fill-19" fill="#000000"></path>
            <path d="M409.0669,44.178 C406.1669,45.244 403.7149,46.145 401.2619,47.045 L401.2619,99.88 C403.8609,100.46 406.3509,101.016 409.0009,101.608 C408.7819,104.229 408.5769,106.686 408.3599,109.283 L375.6949,109.283 L375.6949,101.645 C378.0369,101.051 380.2599,100.489 382.6349,99.887 L382.6349,44.772 C379.9809,44.466 377.3809,44.166 374.6569,43.854 L374.6569,35.749 C381.9119,34.732 389.2059,33.709 396.8079,32.643 C397.4439,34.867 398.0669,37.053 398.6879,39.227 C400.8379,38.104 402.9349,36.924 405.1039,35.893 C409.1359,33.977 413.4729,33.244 417.8619,32.637 C420.7759,32.233 423.0809,32.951 424.9829,35.61 C424.2699,42.121 423.5299,48.881 422.7469,56.026 C418.6569,55.877 414.6359,55.73 410.4709,55.577 C410.0089,51.829 409.5769,48.311 409.0669,44.178" id="Fill-21" fill="#000000"></path>
            <path d="M170.4331,18.0588 L170.4331,33.5548 L184.0571,33.5548 C183.7541,37.0028 183.4831,40.0868 183.2021,43.2818 C179.0181,43.7598 175.0691,44.2108 170.9571,44.6818 C170.8671,45.3878 170.7141,46.0248 170.7151,46.6608 C170.7211,61.5638 170.7421,76.4668 170.7691,91.3698 C170.7711,92.3658 170.7751,93.3728 170.9111,94.3578 C171.3431,97.4768 173.4891,99.4318 176.6481,99.5248 C179.1311,99.5978 181.6181,99.5388 184.4011,99.5388 C184.6821,102.3118 184.9471,104.9208 185.2151,107.5628 C183.2611,108.8788 181.1381,109.2328 179.0351,109.6338 C174.4281,110.5118 169.8081,110.8438 165.1451,110.0378 C158.0311,108.8068 153.3921,104.0018 152.5611,96.8498 C152.3891,95.3668 152.3811,93.8598 152.3801,92.3628 C152.3661,77.3768 152.3721,62.3908 152.3601,47.4048 C152.3591,46.5148 152.2421,45.6258 152.1751,44.6958 C149.2761,44.2118 146.5851,43.7638 143.5741,43.2618 C143.7141,40.1588 143.8511,37.1208 144.0011,33.7788 C147.2061,33.6218 150.3191,33.4698 153.6951,33.3048 C155.1271,28.4648 156.5561,23.6368 158.0161,18.7008 C162.0981,18.4908 166.0681,18.2858 170.4331,18.0588" id="Fill-23" fill="#000000"></path>
            <g id="Group-27" transform="translate(736.000000, 98.342000)">
                <mask id="mask-2" fill="white">
                    <use xlink:href="#path-1"></use>
                </mask>
                <g id="Clip-26"></g>
                <path d="M6.5815,5.9707 L7.0855,5.9707 C7.7335,5.9707 8.1665,5.7497 8.1665,5.3727 C8.1665,4.9627 7.7695,4.7417 7.1575,4.7417 C6.9415,4.7417 6.7255,4.7737 6.5815,4.7737 L6.5815,5.9707 Z M6.5095,8.8397 L4.7455,8.8397 L4.7455,3.8277 C5.1415,3.7647 6.0775,3.6697 7.2665,3.6697 C8.5615,3.6697 9.1375,3.8277 9.5695,4.0487 C9.9305,4.2697 10.1825,4.6477 10.1825,5.1527 C10.1825,5.6567 9.6425,6.0977 8.8505,6.2857 L8.8505,6.3497 C9.4985,6.5377 9.8575,6.9157 10.0375,7.6407 C10.2185,8.3667 10.3265,8.6507 10.4345,8.8397 L8.4535,8.8397 C8.2735,8.6507 8.1665,8.2087 8.0585,7.7677 C7.9495,7.2637 7.6615,7.0117 7.0855,7.0117 L6.5095,7.0117 L6.5095,8.8397 Z M2.8015,6.2857 C2.8015,8.5557 4.7095,10.3527 7.3015,10.3527 C9.8945,10.3527 11.8025,8.5557 11.8025,6.2547 C11.8025,4.0177 9.8945,2.1887 7.2665,2.1887 C4.7095,2.1887 2.8015,4.0177 2.8015,6.2857 L2.8015,6.2857 Z M13.6745,6.2547 C13.6745,9.2817 10.8655,11.7067 7.3015,11.7067 C3.7365,11.7067 0.8935,9.2817 0.8935,6.2547 C0.8935,3.2607 3.7365,0.8337 7.3015,0.8337 C10.8655,0.8337 13.6745,3.2607 13.6745,6.2547 L13.6745,6.2547 Z" id="Fill-25" fill="#000000" mask="url(#mask-2)"></path>
            </g>
        </g>
    </g>
</svg>