<?xml version="1.0" encoding="UTF-8"?>
<svg width="96px" height="26px" viewBox="0 0 90 23" version="1.1" xmlns="http://www.w3.org/2000/svg" xmlns:xlink="http://www.w3.org/1999/xlink">
    <!-- Generator: Sketch 61.2 (89653) - https://sketch.com -->
    <title>logos/media/forbes-black</title>
    <desc>Created with Sketch.</desc>
    <g id="logos/media/forbes-black" stroke="none" stroke-width="1" fill="none" fill-rule="evenodd">
        <g id="Forbes-2" fill="#000000" fill-rule="nonzero">
            <path d="M50.7889447,7.32663317 C50.7889447,4.70351759 50.8341709,2.26130653 50.9698492,0 L44.0502513,1.31155779 L44.0502513,1.94472362 L44.7286432,2.03517588 C45.2261307,2.08040201 45.5427136,2.26130653 45.7236181,2.53266332 C45.9045226,2.84924623 46.040201,3.30150754 46.1306533,3.9798995 C46.2211055,5.29145729 46.3115578,8.27638191 46.2663317,12.9798995 C46.2663317,17.638191 46.2211055,20.5778894 46.1306533,21.7085427 C48.6180905,22.2512563 50.5628141,22.4773869 52.0100503,22.4773869 C54.7236181,22.4773869 56.8492462,21.7085427 58.3869347,20.1256281 C59.9246231,18.5879397 60.7386935,16.4170854 60.7386935,13.7487437 C60.7386935,11.6231156 60.1507538,9.85929648 58.9748744,8.45728643 C57.798995,7.05527638 56.3065327,6.37688442 54.5427136,6.37688442 C53.3668342,6.37688442 52.1457286,6.69346734 50.7889447,7.32663317 L50.7889447,7.32663317 Z M50.9246231,21.2562814 C50.8341709,19.8090452 50.7437186,15.4673367 50.7437186,8.36683417 C51.1507538,8.23115578 51.6934673,8.14070352 52.3718593,8.14070352 C53.4572864,8.14070352 54.3165829,8.68341709 54.9497487,9.81407035 C55.5829146,10.9447236 55.8994975,12.3015075 55.8994975,14.0201005 C55.8994975,16.1457286 55.5376884,17.8643216 54.8140704,19.3115578 C54.0904523,20.7135678 53.1859296,21.4371859 52.0552764,21.4371859 C51.6934673,21.3467337 51.3316583,21.3015075 50.9246231,21.2562814 L50.9246231,21.2562814 Z M18.0904523,0.452261307 L0,0.452261307 L0,1.35678392 L0.949748744,1.44723618 C1.67336683,1.58291457 2.17085427,1.85427136 2.48743719,2.26130653 C2.8040201,2.71356784 2.98492462,3.43718593 3.03015075,4.4321608 C3.3919598,9.31658291 3.3919598,13.8844221 3.03015075,18.0904523 C2.93969849,19.0854271 2.75879397,19.8090452 2.48743719,20.2613065 C2.17085427,20.7135678 1.67336683,20.9849246 0.949748744,21.0753769 L0,21.2110553 L0,22.1155779 L11.6683417,22.1155779 L11.6683417,21.2110553 L10.4472362,21.120603 C9.72361809,21.0301508 9.22613065,20.7135678 8.90954774,20.3065327 C8.59296482,19.8542714 8.4120603,19.1306533 8.36683417,18.1356784 C8.23115578,16.3266332 8.14070352,14.2462312 8.14070352,11.9396985 L10.5829146,11.9849246 C11.8944724,12.0301508 12.798995,13.0251256 13.2512563,15.0150754 L14.1557789,15.0150754 L14.1557789,7.64321608 L13.2512563,7.64321608 C12.798995,9.5879397 11.9396985,10.5829146 10.5829146,10.6281407 L8.14070352,10.6733668 C8.14070352,6.60301508 8.23115578,3.70854271 8.36683417,1.94472362 L11.9396985,1.94472362 C14.4723618,1.94472362 16.1909548,3.57286432 17.1859296,6.82914573 L18.2713568,6.51256281 L18.0904523,0.452261307 Z M15.9648241,14.3819095 C15.9648241,16.7336683 16.6432161,18.678392 17.9547739,20.2160804 C19.2663317,21.7537688 21.2110553,22.4773869 23.6532663,22.4773869 C26.0954774,22.4773869 28.0854271,21.7085427 29.5326633,20.1256281 C30.9798995,18.5879397 31.6582915,16.6432161 31.6582915,14.2914573 C31.6582915,11.9396985 30.9798995,9.99497487 29.6683417,8.45728643 C28.3567839,6.91959799 26.4120603,6.1959799 23.9698492,6.1959799 C21.5276382,6.1959799 19.5376884,6.96482412 18.0904523,8.54773869 C16.6432161,10.0854271 15.9648241,12.0301508 15.9648241,14.3819095 Z M26.0502513,9.22613065 C26.5929648,10.5376884 26.8190955,12.2562814 26.8190955,14.3366834 C26.8190955,19.1306533 25.8241206,21.4824121 23.879397,21.4824121 C22.8844221,21.4824121 22.1155779,20.8040201 21.5728643,19.4472362 C21.0301508,18.0904523 20.8040201,16.3718593 20.8040201,14.3366834 C20.8040201,9.5879397 21.798995,7.2361809 23.7437186,7.2361809 C24.7386935,7.19095477 25.5075377,7.86934673 26.0502513,9.22613065 L26.0502513,9.22613065 Z M64.2663317,20.2160804 C65.758794,21.7085427 67.6582915,22.4773869 69.919598,22.4773869 C71.321608,22.4773869 72.5427136,22.2060302 73.6281407,21.6180905 C74.7135678,21.0753769 75.5728643,20.3969849 76.160804,19.5829146 L75.7085427,19.040201 C74.7135678,19.8090452 73.5829146,20.1708543 72.2713568,20.1708543 C70.4623116,20.1708543 69.0603015,19.5829146 68.1105528,18.361809 C67.1155779,17.1407035 66.6633166,15.6030151 66.7537688,13.6130653 L76.4321608,13.6130653 C76.4321608,11.4422111 75.8894472,9.67839196 74.758794,8.27638191 C73.6281407,6.91959799 72.0452261,6.24120603 70.0100503,6.24120603 C67.4773869,6.24120603 65.5326633,7.05527638 64.1306533,8.63819095 C62.7286432,10.2211055 62.0502513,12.1658291 62.0502513,14.4723618 C62.0502513,16.8241206 62.7738693,18.7236181 64.2663317,20.2160804 L64.2663317,20.2160804 Z M67.6130653,8.86432161 C68.1105528,7.77889447 68.7437186,7.2361809 69.6030151,7.2361809 C70.959799,7.2361809 71.638191,8.95477387 71.638191,12.4371859 L66.8442211,12.5276382 C66.8894472,11.1708543 67.1155779,9.94974874 67.6130653,8.86432161 Z M88.5979899,7.05527638 C87.3768844,6.51256281 85.839196,6.1959799 83.9849246,6.1959799 C82.0854271,6.1959799 80.5929648,6.69346734 79.4623116,7.64321608 C78.3316583,8.59296482 77.7437186,9.76884422 77.7437186,11.1708543 C77.7437186,12.3919598 78.1055276,13.3417085 78.7839196,14.0201005 C79.4623116,14.6984925 80.5477387,15.2864322 81.9497487,15.7839196 C83.2160804,16.2361809 84.120603,16.6884422 84.5728643,17.0954774 C85.0251256,17.5477387 85.2964824,18.0452261 85.2964824,18.7236181 C85.2964824,19.3567839 85.0703518,19.9447236 84.5728643,20.3969849 C84.120603,20.8944724 83.4874372,21.120603 82.6733668,21.120603 C80.6834171,21.120603 79.1909548,19.6733668 78.1507538,16.7788945 L77.3819095,17.0050251 L77.5628141,21.5276382 C79.1909548,22.160804 81,22.4773869 82.9899497,22.4773869 C85.0703518,22.4773869 86.6532663,22.0251256 87.8291457,21.0753769 C89.0050251,20.1708543 89.5929648,18.8592965 89.5929648,17.2311558 C89.5929648,16.1457286 89.321608,15.241206 88.7336683,14.5628141 C88.1457286,13.8844221 87.1959799,13.2964824 85.839196,12.7537688 C84.3467337,12.2110553 83.3065327,11.7135678 82.7638191,11.2613065 C82.2211055,10.8090452 81.9497487,10.2663317 81.9497487,9.5879397 C81.9497487,8.90954774 82.1306533,8.36683417 82.5376884,7.91457286 C82.9447236,7.46231156 83.4422111,7.28140704 84.0753769,7.28140704 C85.8844221,7.28140704 87.1959799,8.59296482 88.0100503,11.1708543 L88.7788945,10.9447236 L88.5979899,7.05527638 Z M45.0904523,6.64824121 C44.4572864,6.33165829 43.7788945,6.1959799 43.0100503,6.1959799 C42.241206,6.1959799 41.4723618,6.51256281 40.6130653,7.14572864 C39.7537688,7.77889447 39.120603,8.63819095 38.6231156,9.81407035 L38.6683417,6.1959799 L31.7939698,7.55276382 L31.7939698,8.18592965 L32.4723618,8.23115578 C33.3316583,8.32160804 33.8291457,9 33.919598,10.2211055 C34.1909548,13.0251256 34.1909548,16.0100503 33.919598,19.1758794 C33.8291457,20.3969849 33.3316583,21.0301508 32.4723618,21.1658291 L31.7939698,21.2562814 L31.7939698,22.1155779 L41.3819095,22.1155779 L41.3819095,21.2562814 L40.160804,21.1658291 C39.3015075,21.0753769 38.8040201,20.3969849 38.7135678,19.1758794 C38.4422111,16.5527638 38.3969849,13.7487437 38.6231156,10.8542714 C38.8944724,10.4020101 39.4824121,10.1306533 40.3869347,10.040201 C41.2914573,9.94974874 42.3316583,10.2211055 43.4170854,10.8542714 L45.0904523,6.64824121 Z" id="Shape"></path>
        </g>
    </g>
</svg>