<?xml version="1.0" encoding="UTF-8"?>
<svg width="56px" height="27px" viewBox="0 0 601 292" version="1.1" xmlns="http://www.w3.org/2000/svg" xmlns:xlink="http://www.w3.org/1999/xlink">
    <title>fox-business-black</title>
    <g id="fox-business-black" stroke="none" stroke-width="1" fill="none" fill-rule="evenodd">
        <g id="fox-business-vector-logo" fill="#020303" fill-rule="nonzero">
            <polyline id="Path" points="0.3 2.2 0.3 193.1 56.9 193.1 56.9 133.3 118.6 133.3 118.6 79.5 57.6 79.5 57.6 54 128.9 54 128.1 2.2 0.3 2.2"></polyline>
            <polyline id="Path" points="310 1.2 368.3 92.3 305.9 193.1 373.5 193.1 401.4 150.8 429.6 193.1 498.6 193.1 434.5 93 493.8 1.2 424.7 1.2 402.9 41.9 378 1.2 310 1.2"></polyline>
            <path d="M232.9,0.6 C174.5,0.6 127.2,43.9 127.2,97.4 C127.2,150.9 174.5,194.2 232.9,194.2 C291.3,194.2 338.7,150.9 338.7,97.4 C338.6,43.9 291.3,0.6 232.9,0.6 M251.2,54.1 C251.2,54.1 251.2,126.2 251.2,135.4 C251.2,144.7 250.1,152.2 232.8,152.2 C215.6,152.2 215.6,142.6 215.6,142.6 L215.6,54.1 C215.6,54.1 214.8,40.4 233.6,40.4 C252.4,40.4 251.2,54.1 251.2,54.1 Z" id="Shape"></path>
            <polyline id="Path" points="571.4 217 507.9 1.2 568.7 1.2 597.3 217 571.4 217"></polyline>
            <polyline id="Path" points="451.1 91.7 529.4 217 562.2 217 493.5 27.6 451.1 91.7"></polyline>
            <polyline id="Path" points="512.8 217.1 0.1 217.1 0.1 204.9 505.1 204.9 512.8 217.1"></polyline>
            <path d="M166.6,271.9 C166.6,277.3 164.9,281.9 161.5,285.8 C158.1,289.7 153.8,291.6 148.5,291.6 L106.3,291.6 C100.9,291.6 96.6,289.7 93.2,285.8 C89.8,281.8 88.2,277.2 88.2,271.9 L88.2,227.7 L103.1,227.7 L103.1,271.9 C103.1,275.1 104.1,276.7 106.3,276.7 L148.4,276.7 C150.5,276.7 151.5,275.1 151.5,271.9 L151.5,227.7 L166.5,227.7 L166.5,271.9" id="Path"></path>
            <path d="M252.4,272 C252.4,277.3 250.8,281.9 247.6,285.7 C244.1,289.7 239.7,291.6 234.4,291.6 L179.3,291.6 L179.3,276.7 L234.4,276.7 C236.5,276.7 237.5,275.1 237.5,272 C237.5,268.8 236.5,267.2 234.4,267.2 L194.3,267.2 C189,267.2 184.6,265.2 181.2,261.3 C177.9,257.5 176.2,253 176.2,247.6 C176.2,242.2 177.9,237.6 181.3,233.7 C184.7,229.8 189,227.8 194.3,227.8 L249.4,227.8 L249.4,242.8 L194.3,242.8 C192.2,242.8 191.2,244.4 191.2,247.6 C191.2,250.8 192.2,252.4 194.3,252.4 L234.4,252.4 C239.7,252.4 244.1,254.4 247.6,258.3 C250.7,262 252.4,266.6 252.4,272" id="Path"></path>
            <rect id="Rectangle" x="260.2" y="227.7" width="14.9" height="64"></rect>
            <polyline id="Path" points="352.7 291.7 337.8 291.7 299.5 248.6 299.5 291.7 284.6 291.7 284.6 227.7 299.5 227.7 337.8 270.5 337.8 227.7 352.7 227.7 352.7 291.7"></polyline>
            <polyline id="Path" points="430.4 242.7 377.2 242.7 377.2 252.3 426.9 252.3 426.9 267.2 377.2 267.2 377.2 276.7 430.2 276.7 430.2 291.7 362.2 291.7 362.2 227.7 430.4 227.7 430.4 242.7"></polyline>
            <path d="M516,272 C516,277.3 514.4,281.9 511.2,285.7 C507.7,289.7 503.4,291.6 498,291.6 L443,291.6 L443,276.7 L498,276.7 C500.1,276.7 501.1,275.1 501.1,272 C501.1,268.8 500.1,267.2 498,267.2 L458,267.2 C452.7,267.2 448.3,265.2 444.8,261.3 C441.5,257.5 439.8,253 439.8,247.6 C439.8,242.2 441.5,237.6 444.9,233.7 C448.3,229.8 452.6,227.8 457.9,227.8 L512.9,227.8 L512.9,242.8 L457.9,242.8 C455.8,242.8 454.8,244.4 454.8,247.6 C454.8,250.8 455.8,252.4 457.9,252.4 L498,252.4 C503.3,252.4 507.7,254.4 511.2,258.3 C514.4,262 516,266.6 516,272" id="Path"></path>
            <path d="M600.1,272 C600.1,277.3 598.5,281.9 595.3,285.7 C591.8,289.7 587.4,291.6 582.2,291.6 L527,291.6 L527,276.7 L582.1,276.7 C584.2,276.7 585.2,275.1 585.2,272 C585.2,268.8 584.2,267.2 582.1,267.2 L542,267.2 C536.7,267.2 532.4,265.2 528.8,261.3 C525.5,257.5 523.9,253 523.9,247.6 C523.9,242.2 525.6,237.6 529,233.7 C532.4,229.8 536.7,227.8 542,227.8 L597.1,227.8 L597.1,242.8 L542,242.8 C539.9,242.8 538.9,244.4 538.9,247.6 C538.9,250.8 539.9,252.4 542,252.4 L582.1,252.4 C587.3,252.4 591.7,254.4 595.2,258.3 C598.5,262 600.1,266.6 600.1,272" id="Path"></path>
            <path d="M72.5,259.3 C77.7,262.5 80.3,267.5 80.3,274.1 C80.3,278.9 78.8,282.9 75.7,286.2 C72.4,289.9 68,291.7 62.3,291.7 L0.4,291.7 L0.4,227.7 L61.2,227.7 C66.8,227.7 71.3,229.6 74.6,233.2 C77.6,236.5 79.1,240.6 79.1,245.4 C79.1,251.3 76.9,256 72.5,259.3 M61.2,252.4 C63.3,252.4 64.4,250.8 64.4,247.5 C64.4,244.3 63.4,242.7 61.2,242.7 L15.4,242.7 L15.4,252.4 L61.2,252.4 Z M62.3,276.7 C64.5,276.7 65.6,275.1 65.6,272 C65.6,268.8 64.5,267.2 62.3,267.2 L15.3,267.2 L15.3,276.8 L62.3,276.8 L62.3,276.7 Z" id="Shape"></path>
        </g>
    </g>
</svg>